#N canvas 0 23 803 641 12;
#X obj 465 316 phasor~;
#X obj 465 346 *~;
#X obj 545 182 t f f;
#X msg 465 200 \$1;
#X obj 464 229 /;
#X obj 463 252 swap 1;
#X obj 467 289 /;
#X obj 340 424 *~;
#N canvas 393 224 474 562 env-generator 0;
#X obj 123 174 metro;
#X obj 183 144 t f f;
#X obj 123 197 t b b;
#X obj 175 234 delay;
#X obj 123 257 bng 15 250 50 0 empty empty empty 17 7 0 10 -262144
-1 -1;
#X obj 175 257 bng 15 250 50 0 empty empty empty 17 7 0 10 -262144
-1 -1;
#X obj 124 104 inlet;
#X obj 183 99 inlet;
#N canvas 307 105 508 412 basic-env 0;
#X obj 73 57 inlet peak;
#X obj 153 57 inlet attack;
#X obj 247 57 inlet release;
#X obj 73 165 pack f f;
#X obj 153 87 t f f;
#X obj 73 112 t f b;
#X obj 186 165 delay;
#X obj 186 210 pack f f;
#X obj 117 342 outlet~;
#X obj 117 243 line~;
#X obj 117 289 *~;
#X obj 348 57 inlet zero;
#X obj 186 188 f;
#X connect 0 0 5 0;
#X connect 1 0 4 0;
#X connect 2 0 7 1;
#X connect 3 0 9 0;
#X connect 4 0 3 1;
#X connect 4 1 6 1;
#X connect 5 0 3 0;
#X connect 5 1 6 0;
#X connect 6 0 12 0;
#X connect 7 0 9 0;
#X connect 9 0 10 0;
#X connect 9 0 10 1;
#X connect 10 0 8 0;
#X connect 11 0 12 1;
#X connect 12 0 7 0;
#X restore 152 373 pd basic-env;
#X floatatom 193 345 5 0 0 0 - - -;
#X floatatom 239 345 5 0 0 0 - - -;
#X msg 138 304 1;
#X obj 152 414 outlet~;
#X msg 185 302 0.75;
#X obj 259 211 r \$0-attack;
#X obj 284 240 r \$0-release;
#X obj 215 170 / 2.9;
#X floatatom 285 345 5 0 0 0 - - -;
#X obj 320 269 r \$0-zero;
#X connect 0 0 2 0;
#X connect 1 0 0 1;
#X connect 1 1 16 0;
#X connect 2 0 4 0;
#X connect 2 1 3 0;
#X connect 3 0 5 0;
#X connect 4 0 11 0;
#X connect 5 0 13 0;
#X connect 6 0 0 0;
#X connect 7 0 1 0;
#X connect 8 0 12 0;
#X connect 9 0 8 1;
#X connect 10 0 8 2;
#X connect 11 0 8 0;
#X connect 13 0 8 0;
#X connect 14 0 9 0;
#X connect 15 0 10 0;
#X connect 16 0 3 1;
#X connect 17 0 8 3;
#X connect 18 0 17 0;
#X restore 213 326 pd env-generator;
#X obj 213 307 tgl 15 0 empty empty empty 17 7 0 10 -262144 -1 -1 1
1;
#X floatatom 322 305 5 0 0 0 - - -;
#X obj 465 134 r \$1-info;
#X obj 545 134 r \$1-samples;
#X obj 465 369 tabread4~ \$1;
#X obj 213 33 inlet;
#X obj 227 192 s \$0-attack;
#X obj 295 170 s \$0-release;
#X obj 340 466 outlet~;
#X obj 322 256 swap 1000;
#X obj 322 282 /;
#X obj 322 232 / 60;
#X obj 322 207 t f f;
#X obj 213 123 route float attack release zero hr;
#X obj 354 147 s \$0-zero;
#X connect 0 0 1 0;
#X connect 1 0 13 0;
#X connect 2 0 4 0;
#X connect 2 1 1 1;
#X connect 3 0 4 1;
#X connect 4 0 5 0;
#X connect 5 0 6 0;
#X connect 5 1 6 1;
#X connect 6 0 0 0;
#X connect 7 0 17 0;
#X connect 8 0 7 0;
#X connect 9 0 8 0;
#X connect 10 0 8 1;
#X connect 11 0 3 0;
#X connect 12 0 2 0;
#X connect 13 0 7 1;
#X connect 14 0 22 0;
#X connect 18 0 19 0;
#X connect 18 1 19 1;
#X connect 19 0 10 0;
#X connect 20 0 18 0;
#X connect 21 0 20 0;
#X connect 22 0 9 0;
#X connect 22 1 15 0;
#X connect 22 2 16 0;
#X connect 22 3 23 0;
#X connect 22 4 21 0;
