#N canvas 106 120 1299 604 12;
#X obj 64 90 netreceive -u -b 8000;
#X obj 64 117 oscparse hr;
#X obj 62 296 print;
#N canvas 0 23 1141 478 sounds 0;
#X obj 379 66 table son1;
#X obj 30 90 soundfiler;
#X obj 30 194 soundfiler;
#X obj 29 298 soundfiler;
#X obj 29 397 soundfiler;
#X msg 30 170 read -resize SONS/PROJET-XIMENA-EAU.wav son2;
#X obj 373 170 table son2;
#X obj 372 274 table son3;
#X msg 29 274 read -resize SONS/PROJET-XIMENA-FEU.wav son3;
#X msg 29 373 read -resize SONS/PROJET-XIMENA-TERRE.wav son4;
#X obj 372 373 table son4;
#X obj 199 13 bng 15 250 50 0 empty empty empty 17 7 0 10 -262144 -1
-1;
#X msg 30 66 read -resize SONS/PROJET-XIMENA-VENT.wav son1;
#X obj 219 12 loadbang;
#X obj 137 118 s son1-info;
#X obj 30 118 s son1-samples;
#X obj 30 220 s son2-samples;
#X obj 137 220 s son2-info;
#X obj 29 323 s son3-samples;
#X obj 136 323 s son3-info;
#X obj 136 424 s son4-info;
#X obj 29 424 s son4-samples;
#X connect 1 0 15 0;
#X connect 1 1 14 0;
#X connect 2 0 16 0;
#X connect 2 1 17 0;
#X connect 3 0 18 0;
#X connect 3 1 19 0;
#X connect 4 0 21 0;
#X connect 4 1 20 0;
#X connect 5 0 2 0;
#X connect 8 0 3 0;
#X connect 9 0 4 0;
#X connect 11 0 12 0;
#X connect 11 0 5 0;
#X connect 11 0 8 0;
#X connect 11 0 9 0;
#X connect 12 0 1 0;
#X connect 13 0 11 0;
#X restore 216 40 pd sounds;
#X obj 699 485 *~;
#X obj 794 502 line~;
#X msg 794 481 \$1 10;
#X obj 797 463 hsl 128 15 0 1 0 0 empty empty empty -2 -8 0 10 -262144
-1 -1 0 1;
#X obj 684 518 dac~ 1 2;
#X obj 319 168 body-music-player son1;
#X obj 319 98 tgl 15 0 empty empty empty 17 7 0 10 -262144 -1 -1 0
1;
#X msg 342 131 attack \$1;
#X msg 418 131 release \$1;
#X floatatom 342 98 5 0 0 0 - - -;
#X floatatom 418 99 5 0 0 0 - - -;
#X floatatom 502 99 5 0 0 0 - - -;
#X msg 502 131 hr \$1;
#X obj 319 254 *~;
#X obj 337 232 line~;
#X msg 337 211 \$1 10;
#X obj 340 193 hsl 128 15 0 1 0 0 empty empty empty -2 -8 0 10 -262144
-1 -1 6200 1;
#X obj 550 99 tgl 15 0 empty empty empty 17 7 0 10 -262144 -1 -1 0
1;
#X msg 573 132 attack \$1;
#X msg 649 132 release \$1;
#X floatatom 573 99 5 0 0 0 - - -;
#X floatatom 649 100 5 0 0 0 - - -;
#X floatatom 733 100 5 0 0 0 - - -;
#X msg 733 132 hr \$1;
#X obj 550 255 *~;
#X obj 568 233 line~;
#X msg 568 212 \$1 10;
#X obj 571 194 hsl 128 15 0 1 0 0 empty empty empty -2 -8 0 10 -262144
-1 -1 0 1;
#X obj 550 169 body-music-player son2;
#X obj 779 100 tgl 15 0 empty empty empty 17 7 0 10 -262144 -1 -1 0
1;
#X msg 802 133 attack \$1;
#X msg 878 133 release \$1;
#X floatatom 802 100 5 0 0 0 - - -;
#X floatatom 878 101 5 0 0 0 - - -;
#X floatatom 962 101 5 0 0 0 - - -;
#X msg 962 133 hr \$1;
#X obj 779 256 *~;
#X obj 797 234 line~;
#X msg 797 213 \$1 10;
#X obj 800 195 hsl 128 15 0 1 0 0 empty empty empty -2 -8 0 10 -262144
-1 -1 0 1;
#X obj 1010 101 tgl 15 0 empty empty empty 17 7 0 10 -262144 -1 -1
0 1;
#X msg 1033 134 attack \$1;
#X msg 1109 134 release \$1;
#X floatatom 1033 101 5 0 0 0 - - -;
#X floatatom 1109 102 5 0 0 0 - - -;
#X floatatom 1193 102 5 0 0 0 - - -;
#X msg 1193 134 hr \$1;
#X obj 1010 257 *~;
#X obj 1028 235 line~;
#X msg 1028 214 \$1 10;
#X obj 1031 196 hsl 128 15 0 1 0 0 empty empty empty -2 -8 0 10 -262144
-1 -1 0 1;
#X obj 779 170 body-music-player son3;
#X obj 1010 171 body-music-player son4;
#X floatatom 380 35 5 0 0 0 - - -;
#X msg 380 69 zero \$1;
#X floatatom 666 31 5 0 0 0 - - -;
#X msg 666 65 zero \$1;
#X floatatom 865 39 5 0 0 0 - - -;
#X msg 865 73 zero \$1;
#X floatatom 1094 39 5 0 0 0 - - -;
#X msg 1094 73 zero \$1;
#X obj 64 142 list trim;
#X obj 64 167 route hr;
#X obj 64 192 moses 40;
#X obj 117 216 moses 200;
#X connect 0 0 1 0;
#X connect 1 0 65 0;
#X connect 4 0 8 0;
#X connect 4 0 8 1;
#X connect 5 0 4 1;
#X connect 6 0 5 0;
#X connect 7 0 6 0;
#X connect 9 0 17 0;
#X connect 10 0 9 0;
#X connect 11 0 9 0;
#X connect 12 0 9 0;
#X connect 13 0 11 0;
#X connect 14 0 12 0;
#X connect 15 0 16 0;
#X connect 16 0 9 0;
#X connect 17 0 4 0;
#X connect 18 0 17 1;
#X connect 19 0 18 0;
#X connect 20 0 19 0;
#X connect 21 0 32 0;
#X connect 22 0 32 0;
#X connect 23 0 32 0;
#X connect 24 0 22 0;
#X connect 25 0 23 0;
#X connect 26 0 27 0;
#X connect 27 0 32 0;
#X connect 28 0 4 0;
#X connect 29 0 28 1;
#X connect 30 0 29 0;
#X connect 31 0 30 0;
#X connect 32 0 28 0;
#X connect 33 0 55 0;
#X connect 34 0 55 0;
#X connect 35 0 55 0;
#X connect 36 0 34 0;
#X connect 37 0 35 0;
#X connect 38 0 39 0;
#X connect 39 0 55 0;
#X connect 40 0 4 0;
#X connect 41 0 40 1;
#X connect 42 0 41 0;
#X connect 43 0 42 0;
#X connect 44 0 56 0;
#X connect 45 0 56 0;
#X connect 46 0 56 0;
#X connect 47 0 45 0;
#X connect 48 0 46 0;
#X connect 49 0 50 0;
#X connect 50 0 56 0;
#X connect 51 0 4 0;
#X connect 52 0 51 1;
#X connect 53 0 52 0;
#X connect 54 0 53 0;
#X connect 55 0 40 0;
#X connect 56 0 51 0;
#X connect 57 0 58 0;
#X connect 58 0 9 0;
#X connect 59 0 60 0;
#X connect 60 0 32 0;
#X connect 61 0 62 0;
#X connect 62 0 55 0;
#X connect 63 0 64 0;
#X connect 64 0 56 0;
#X connect 65 0 66 0;
#X connect 66 0 67 0;
#X connect 67 1 68 0;
#X connect 68 0 15 0;
